PathFileType	4	(X/Y/Z)	Patient4_TMGait_0pt6_01_right_12.trc.trc
DataRate	CameraRate	NumFrames	NumMarkers	Units	OrigDataRate	OrigDataStartFrame	OrigNumFrames
80.459770114943	80.459770114943	6	33	mm	80.459770114943	36	       141
Frame#	Time	Sacral			L.Shoulder			Chest			R.Shoulder			Neck			R.ASIS			L.ASIS			R.Thigh.Superior			R.Thigh.Lateral			R.Thigh.Inferior			R.Patella			L.Thigh.Superior			L.Thigh.Lateral			L.Thigh.Inferior			L.Patella			L.Shank.Superior			L.Shank.Lateral			L.Shank.Inferior			R.Shank.Superior			R.Shank.Lateral			R.Shank.Inferior			R.Heel			R.Midfoot.Superior			R.Midfoot.Lateral			R.Toe			L.Heel			L.Midfoot.Lateral			L.Midfoot.Superior			L.Toe			L.Elbow			L.Wrist			R.Elbow			R.Wrist			
		X1	Y1	Z1	X2	Y2	Z2	X3	Y3	Z3	X4	Y4	Z4	X5	Y5	Z5	X6	Y6	Z6	X7	Y7	Z7	X8	Y8	Z8	X9	Y9	Z9	X10	Y10	Z10	X11	Y11	Z11	X12	Y12	Z12	X13	Y13	Z13	X14	Y14	Z14	X15	Y15	Z15	X16	Y16	Z16	X17	Y17	Z17	X18	Y18	Z18	X19	Y19	Z19	X20	Y20	Z20	X21	Y21	Z21	X22	Y22	Z22	X23	Y23	Z23	X24	Y24	Z24	X25	Y25	Z25	X26	Y26	Z26	X27	Y27	Z27	X28	Y28	Z28	X29	Y29	Z29	X30	Y30	Z30	X31	Y31	Z31	X32	Y32	Z32	X33	Y33	Z33	

36	14.375000000000	688.998215849319	995.435993081669	493.544670226861	850.295756840685	1434.071522518885	324.184997638713	952.658813088193	1364.374565132111	484.830897092638	862.193808586866	1426.593717594478	658.346385751213	826.858805824372	1489.521099223701	479.397644678306	916.305963159615	940.194727695135	615.475016688450	904.141154183107	956.116529722989	341.117300527668	979.419442566257	748.110755923705	581.847495449399	911.136072099451	631.677548751739	639.875947535332	993.414236635846	587.956791601052	558.786238658651	1004.527405499351	497.129502535458	564.415548392987	937.374277320418	731.323085879724	366.358861775888	843.299077688954	620.840328257724	302.178984165765	924.167635189446	532.904475561440	360.298024391859	913.542753958728	448.913481255298	358.706760986416	847.028270513684	391.385765846456	354.165231051248	709.103266916535	340.670001358406	306.582332460955	700.389658844393	214.551918313558	367.027485181733	977.458501914037	406.668159472783	569.858707256414	909.782211807237	300.232045623890	630.443853649585	953.171569016129	207.387738710533	566.238724154006	821.706011934787	42.333546779427	535.259621025892	992.598796986202	97.159039053247	571.308971333761	904.472127547279	36.788263051519	610.516370494906	1112.618395983171	44.618548420594	600.502918596237	514.575141079760	132.082634788341	409.455920812232	575.229064857037	95.802101404140	327.653512810540	677.321449336062	118.636928404989	346.553154097075	768.579568967527	32.262063412093	315.925557835206	905.439225587701	1089.144325958901	195.227260407211	1143.077743097625	985.460499277590	209.332032412456	793.777938219275	1077.902457053051	755.755017381955	848.744805848939	822.354660460281	756.156437857948	
37	14.387428571429	688.917037992321	996.406223253091	497.296384487762	848.578577048757	1434.795962059220	326.235544744075	952.598376723667	1365.249451252662	485.921531333889	863.951439249740	1427.669965814352	660.242691479524	826.799962571990	1490.383894665913	481.679241362991	917.129995533033	941.049496830051	617.162034110893	902.820193653745	956.843918429492	342.802348778761	977.784684190520	747.499502043777	584.174864868784	907.923280386315	631.800822321716	641.963116164709	989.660183507398	587.234881056039	560.864992147178	999.565607197491	496.484326753406	566.184332657917	941.574107018844	734.300696785572	368.134475418076	851.912241079471	621.645001705018	302.951672636094	935.680968566752	535.398724091749	360.641625348999	926.206138636058	450.200756584501	358.156624453278	857.740336840083	392.819871665580	353.866518682508	717.786204919665	347.235732371442	306.650174738675	705.131312404411	221.209384341643	366.632634608216	972.076736824112	406.318868470267	571.400337221497	903.882263204554	300.094517259304	631.575056353850	946.693246190122	207.209823880662	567.008701236908	814.479781648024	42.424622415685	535.464182180337	985.475088424670	97.161872567821	571.700373343857	897.247545087616	36.788415324552	610.680277387177	1105.454625063016	44.146043383248	600.781642951355	515.952071284369	147.744966710043	408.800894842725	574.857427655841	107.949985287758	327.125406834299	678.338190973345	124.705955006397	346.203109168774	763.889546811502	31.905337367968	315.991217513126	900.426977170101	1088.152384531846	199.916707889460	1134.177208816665	974.688982917721	212.336288046515	803.069767445024	1077.394642511854	759.298983360282	869.613581960321	824.609597705915	758.150004593789	
38	14.399857142857	688.610801361270	997.387540596084	500.923973864888	846.687140537941	1435.450620855284	328.184350519443	952.452828552331	1366.010320832172	486.826720272127	865.767339446942	1428.636495020767	662.032047423266	826.722689503589	1491.178926419492	483.898643905311	917.717933464826	941.839572942410	618.700786440152	901.335095139044	957.469920864277	344.283776024023	975.807317497184	746.856206226782	586.590549702576	904.302141817700	631.914899854762	644.055380307780	985.584815744387	586.517962289127	563.056871267500	994.235242503207	495.873337749226	568.088738126839	945.589248124383	737.550855723923	369.814670579065	860.404189316790	622.880885940863	303.507014462141	946.919744490005	538.462346528998	360.859256228599	938.744166820775	452.163293237432	357.636518166296	868.640455411236	394.756597318253	353.502565444643	726.973710384871	353.865804580367	306.620709658891	710.723974893322	228.023732551959	366.260063610229	966.394286353413	406.010579192281	573.041174102830	897.669430566725	299.968502806743	632.740159068657	940.065008679581	207.068365342500	567.865545045384	807.185134251176	42.539391017109	535.665290122314	978.317906361504	97.134254226885	572.132665020519	889.955090375160	36.785539536948	610.837284913754	1098.222757222104	43.622661891856	601.065791559197	518.725985698397	162.818386681908	408.218804059247	575.960091327032	120.036159688826	326.592986691890	680.542176916145	131.178546039173	345.893250461532	760.757262763864	32.064025638144	315.833098180837	895.182275534513	1087.136351714910	204.427737954880	1124.255755246189	963.394151652066	215.074321941387	812.553932251969	1077.046649863724	762.921452970144	891.045376603984	827.705857334066	760.112180332788	
39	14.412285714286	688.097830131518	998.378087593526	504.387842338427	844.671905121017	1436.051397604810	330.022091051468	952.217952187816	1366.666627370146	487.566914462689	867.590951616425	1429.502137674126	663.709093154458	826.626888033399	1491.925832638844	486.025062763876	918.058156141446	942.580084984116	620.116211198918	899.729299139799	958.028269718643	345.596069763761	973.531077374706	746.227885423910	589.037889923231	900.361806061927	632.052415870152	646.121670149805	981.252879296207	585.838075065636	565.305766547435	988.618977416973	495.319138080110	570.080564087094	949.317038315091	741.063759839550	371.383238137254	868.547128012035	624.583379634817	303.860868602347	957.655117198183	542.095961884181	360.908257433759	950.951694445294	454.809347707712	357.065598422878	879.548314193035	397.195357638085	353.024549906692	736.479779841500	360.363526092666	306.484806208661	717.168777029298	234.721092373026	365.859635937058	960.481343046470	405.758857330251	574.738882591618	891.201545161552	299.882025767965	633.918168798676	933.322412906851	206.975807455623	568.789107757002	799.823504794558	42.690220920274	535.867173720947	971.129973479692	97.088018605522	572.591465061204	882.598373295193	36.785673953763	610.986876614954	1090.925173038781	43.069968651916	601.345506024482	522.960497962453	176.578033066578	407.732007375681	578.686612803686	131.445610855536	326.058879677005	684.088066410735	137.747706424966	345.549526184183	759.635416284510	32.840780985557	315.363054277509	889.738452804856	1086.120831727159	208.717194179461	1113.240355869462	951.686751085028	217.536403975276	822.232602140788	1076.851521267028	766.540943095349	912.904992370133	831.678233250904	761.994249906670	
40	14.424714285714	687.402462236258	999.385720782052	507.659613448238	842.584680420752	1436.627128378571	331.744804902008	951.888107635047	1367.246265164879	488.171396049996	869.365370579541	1430.297544554681	665.270604108414	826.504816861859	1492.656322184955	488.030401929071	918.148398679335	943.293295151388	621.432811493075	898.039580877609	958.574876450915	346.792216379724	970.999427907305	745.655579835830	591.457557196767	896.173413931662	632.243736925133	648.127899598183	976.711451688038	585.223092186548	567.551834382973	982.782023177455	494.842885333209	572.101080892156	952.674999331278	744.825795712175	372.826033190266	876.147661385499	626.763377553320	304.030671153103	967.707177537428	546.275956293675	360.740969938963	962.655162382869	458.125248335165	356.352906421592	890.318547777719	400.112020880507	352.377241024532	746.146244795525	366.514197458471	306.229546313381	724.496125556620	241.008617528256	365.373156408829	954.393368699606	405.580384028486	576.447778580251	884.525885159207	299.862259231073	635.084618779453	926.494043283278	206.947497159165	569.757165098837	792.404561708218	42.888207161919	536.072776942316	963.917941733212	97.039866083615	573.065475709995	875.188629254202	36.794336534564	611.128587938367	1083.569877271583	42.516608242472	601.613693777308	528.715089973916	188.335720757296	407.345168275413	583.174031037826	141.564602178346	325.512844711848	689.143544729289	144.057256654462	345.091684627151	760.959484980789	34.260222440752	314.504757833603	884.122441706467	1085.149186492497	212.752859516728	1101.061469006264	939.705577941215	219.717410532542	832.106690131453	1076.823368201897	770.069661724510	935.062085315832	836.572185700876	763.735092574532	
41	14.437142857143	686.551583472134	1000.424179819585	510.721091846606	840.472791493176	1437.211698673173	333.353990936796	951.458197673514	1367.787507375171	488.674413232996	871.034383688468	1431.065438921973	666.715916153284	826.343933536197	1493.405412016084	489.894815324110	917.994769246507	944.001769386331	622.669761479093	896.288388834725	959.174093677560	347.932694420009	968.252342201868	745.170893082644	593.789096763606	891.792214387778	632.513564732369	650.040592589118	971.992508426737	584.694649267459	569.736745996356	976.773012240775	494.462482571763	574.090070708935	955.605735385855	748.815003080628	374.130196498134	883.060582658759	629.402474555746	304.036630332471	976.948987031756	550.951404078587	360.317717094373	973.715981297077	462.073003427963	355.422653457761	900.842797680803	403.456361478054	351.515548280952	755.853142255798	372.096639356661	305.841061942326	732.756538606380	246.598179237827	364.743684087920	948.172157594881	405.489708584201	578.123487154825	877.680713183190	299.932088455517	636.215047469051	919.601411553808	206.997869244144	570.746922645438	784.942265900331	43.142550145055	536.283172832764	956.690674658050	97.006169261779	573.545242509529	867.740853909722	36.816432544939	611.262064355461	1076.167948382045	41.990064579657	601.865603565547	536.044513301849	197.503548426063	407.037675554774	589.540023986956	149.841716430679	324.928036946249	695.871080417134	149.737897165895	344.443799353876	765.099352702018	36.247614898611	313.202389013330	878.353530713287	1084.274145598517	216.512938133255	1087.663935654470	927.617750510641	221.615715289070	842.169506472063	1076.992442658949	773.421687529985	957.392112483479	842.440193310116	765.267180691628	
